<svg id="Layer_1" data-name="Layer 1" xmlns="http://www.w3.org/2000/svg" xmlns:xlink="http://www.w3.org/1999/xlink" viewBox="0 0 403 387"><defs><linearGradient id="linear-gradient" x1="402.66" y1="292.11" x2=".72" y2="281.34" gradientTransform="matrix(1 0 0 -1 0 454)" gradientUnits="userSpaceOnUse"><stop offset="0" stop-color="#dae3fe"/><stop offset="1" stop-color="#e9effd"/></linearGradient><linearGradient id="linear-gradient-2" x1="36.11" y1="180.23" x2="118.82" y2="180.23" xlink:href="#linear-gradient"/><linearGradient id="linear-gradient-3" x1="321.72" y1="205.25" x2="380.12" y2="205.25" xlink:href="#linear-gradient"/><linearGradient id="linear-gradient-4" x1="104.68" y1="341.27" x2="138.67" y2="341.27" gradientTransform="matrix(1 0 0 -1 0 454)" gradientUnits="userSpaceOnUse"><stop offset="0" stop-color="#fe7062"/><stop offset="1" stop-color="#ff928e"/></linearGradient><linearGradient id="linear-gradient-5" x1="92.71" y1="292.62" x2="100.23" y2="319.89" gradientTransform="matrix(1 0 0 -1 0 454)" gradientUnits="userSpaceOnUse"><stop offset="0" stop-color="#ff928e"/><stop offset="1" stop-color="#feb3b1"/></linearGradient><linearGradient id="linear-gradient-6" x1="105.16" y1="289.18" x2="112.68" y2="316.46" xlink:href="#linear-gradient-5"/><linearGradient id="linear-gradient-7" x1="114.29" y1="286.67" x2="121.81" y2="313.95" xlink:href="#linear-gradient-5"/><linearGradient id="linear-gradient-8" x1="130.81" y1="282.11" x2="138.32" y2="309.39" xlink:href="#linear-gradient-5"/><linearGradient id="linear-gradient-9" x1="143.99" y1="278.48" x2="151.51" y2="305.76" xlink:href="#linear-gradient-5"/><linearGradient id="linear-gradient-10" x1="187.23" y1="330.19" x2="171.03" y2="294.18" gradientTransform="matrix(1 0 0 -1 0 454)" gradientUnits="userSpaceOnUse"><stop offset="0" stop-color="#e1473d"/><stop offset="1" stop-color="#e9605a"/></linearGradient><linearGradient id="linear-gradient-11" x1="36.66" y1="163.31" x2="40.75" y2="163.31" xlink:href="#linear-gradient-5"/><linearGradient id="linear-gradient-12" x1="10.66" y1="166.7" x2="15.55" y2="166.7" xlink:href="#linear-gradient-5"/><linearGradient id="linear-gradient-13" x1="32.23" y1="248.86" x2="37.11" y2="225.65" gradientTransform="matrix(1 0 0 -1 0 454)" gradientUnits="userSpaceOnUse"><stop offset="0" stop-color="#09005d"/><stop offset="1" stop-color="#1a0f91"/></linearGradient><linearGradient id="linear-gradient-14" x1="33.04" y1="237.72" x2="15.69" y2="222.31" xlink:href="#linear-gradient-5"/><linearGradient id="linear-gradient-15" x1="62.7" y1="278.79" x2="-48.52" y2="181.73" xlink:href="#linear-gradient-4"/><linearGradient id="linear-gradient-16" x1="80.28" y1="258.64" x2="-30.94" y2="161.58" xlink:href="#linear-gradient-4"/><linearGradient id="linear-gradient-17" x1="65.68" y1="236.25" x2="79.38" y2="236.25" xlink:href="#linear-gradient-5"/><linearGradient id="linear-gradient-18" x1="52.36" y1="272.75" x2="52.21" y2="247.24" xlink:href="#linear-gradient-5"/><linearGradient id="linear-gradient-19" x1="60.65" y1="276.94" x2="50.62" y2="258.69" xlink:href="#linear-gradient-5"/><linearGradient id="linear-gradient-20" x1="44.32" y1="261.27" x2="52.8" y2="272.96" xlink:href="#linear-gradient-5"/><linearGradient id="linear-gradient-21" x1="39.93" y1="229.97" x2="22.58" y2="214.56" xlink:href="#linear-gradient-5"/><linearGradient id="linear-gradient-22" x1="77.92" y1="237.86" x2="82.83" y2="237.86" xlink:href="#linear-gradient-5"/><linearGradient id="linear-gradient-23" x1="311.77" y1="176.99" x2="328.34" y2="176.99" gradientTransform="matrix(1 0 0 -1 0 454)" gradientUnits="userSpaceOnUse"><stop offset="0" stop-color="#a22b25"/><stop offset="1" stop-color="#c0423c"/></linearGradient><linearGradient id="linear-gradient-24" x1="332.92" y1="218.98" x2="329.45" y2="211.82" xlink:href="#linear-gradient-23"/><linearGradient id="linear-gradient-25" x1="402.74" y1="263.35" x2="362.48" y2="234.99" xlink:href="#linear-gradient-4"/><linearGradient id="linear-gradient-26" x1="326.2" y1="240.33" x2="334.3" y2="224.19" xlink:href="#linear-gradient-23"/><linearGradient id="linear-gradient-27" x1="331.37" y1="253.19" x2="328.55" y2="239.27" xlink:href="#linear-gradient-23"/><linearGradient id="linear-gradient-28" x1="329.2" y1="253.22" x2="347.19" y2="218.52" xlink:href="#linear-gradient-10"/><linearGradient id="linear-gradient-29" x1="336.06" y1="252.24" x2="333.23" y2="238.31" xlink:href="#linear-gradient-23"/><linearGradient id="linear-gradient-30" x1="347.74" y1="219.24" x2="341.82" y2="209.82" xlink:href="#linear-gradient-23"/><linearGradient id="linear-gradient-31" x1="336.18" y1="256.84" x2="354.17" y2="222.14" xlink:href="#linear-gradient-10"/><style>.cls-11,.cls-2{fill:#fff}.cls-2{isolation:isolate;opacity:.05}.cls-5{fill:#a5bad0}.cls-6{fill:#bdd0fb}.cls-8{fill:#91b3fa}.cls-10{fill:#364658}.cls-12{fill:#eef2f6}.cls-15{fill:#009ddc}.cls-18{fill:#7b8fa5}.cls-25{fill:#7d97f4}.cls-38{fill:#14212d}</style></defs><circle cx="199.5" cy="181.5" r="181.5" style="isolation:isolate" opacity=".07" fill="#fff"/><circle class="cls-2" cx="199.5" cy="181.5" r="144.5"/><path class="cls-2" d="M210 189l114.32 198H95.68z"/><path d="M328.14 50.64c31.86 24.85-8.92 58.92 13.06 72.74s112.15 39.51 23.6 97.62-90.05 95-155.29 61.49-60.78-40-113-14.75-108.6-10.41-90.96-54.92 29.61-44.28 7.39-71.8S22.2 34.8 97.69 92.93s120.55 12 128.06-10.66 52.04-70.91 102.39-31.63z" fill="url(#linear-gradient)"/><path d="M110.62 31.71c-4.54 15.1-27.32 104 52.58 140.34 0 0 30.13-54.7-50.33-140.88a1.33 1.33 0 00-2.25.54z" fill="#ededed"/><path class="cls-5" d="M116.57 46.54c.59 5 1.28 10 2 15s1.54 9.94 2.37 14.9c1.71 9.92 3.63 19.81 5.84 29.61s4.75 19.55 7.8 29.12q2.26 7.2 5 14.19a125.72 125.72 0 006.31 13.62.74.74 0 01-1.3.71 126.29 126.29 0 01-6.29-13.82q-2.76-7.08-5-14.31c-3-9.65-5.46-19.44-7.61-29.28s-4-19.74-5.65-29.68c-.81-5-1.57-10-2.27-14.93s-1.35-10-1.9-15a.31.31 0 01.27-.35.27.27 0 01.43.22zM0 116.69c.82 24.39 11.41 166.15 146.67 180.13 0 0 17.13-95.1-143.62-182A2.07 2.07 0 000 116.69z"/><path class="cls-6" d="M15.93 135.6C19 143.18 22.47 150.65 26 158s7.33 14.67 11.27 21.89a439 439 0 0025.91 41.84 283.44 283.44 0 0031.45 37.77c2.89 2.89 5.9 5.68 9 8.39.78.67 1.53 1.35 2.33 2l2.37 2c1.59 1.28 3.18 2.57 4.83 3.79a131.55 131.55 0 0020.78 13 .74.74 0 01-.66 1.32 133.53 133.53 0 01-20.94-13.25c-1.65-1.23-3.26-2.55-4.85-3.85l-2.36-2c-.8-.65-1.56-1.35-2.33-2-3.09-2.74-6.1-5.55-9-8.49a283.71 283.71 0 01-31.4-38.04 439.38 439.38 0 01-25.79-42q-5.86-10.85-11.19-22c-3.55-7.4-7-14.88-10-22.52a.33.33 0 01.17-.41.3.3 0 01.34.16z"/><path class="cls-6" d="M25.28 251.39c6 9.92 43 66.21 96.8 41 0 0-15.77-43.32-96.1-42.49a.94.94 0 00-.7 1.49z"/><path d="M36.61 256c3 2.22 6.1 4.35 9.22 6.4s6.31 4 9.51 5.95 6.48 3.75 9.78 5.51 6.63 3.45 10 5c1.69.79 3.41 1.53 5.12 2.28s3.45 1.45 5.2 2.09c3.49 1.34 7 2.55 10.61 3.56a78.38 78.38 0 0022 3.31.72.72 0 01.73.73.73.73 0 01-.73.74A78.75 78.75 0 0195.74 288c-3.63-1.05-7.18-2.32-10.68-3.7-1.76-.67-3.49-1.43-5.22-2.16s-3.43-1.53-5.12-2.34c-3.39-1.61-6.75-3.33-10-5.13s-6.56-3.67-9.76-5.62-6.36-4-9.49-6.07-6.19-4.24-9.19-6.52a.33.33 0 01-.06-.45.34.34 0 01.39-.01z" fill="url(#linear-gradient-2)"/><path class="cls-5" d="M78.35 92.58h-5.86c-1 0-1.88-.5-1.9-1.12L68.8 51.7c0-.64.84-1.18 1.91-1.18h7.64c1.05 0 1.9.5 1.9 1.14v39.76c0 .66-.85 1.16-1.9 1.16z"/><path class="cls-6" d="M68.46 47.39l.05.52c.06.5.74.89 1.56.91l8.46.25c.93 0 1.72-.42 1.72-1v-.8c0-.52-.7-1-1.57-1-2.11-.06-5.9-.12-8.71 0-.91.11-1.59.58-1.51 1.12z"/><path class="cls-5" d="M62.34 92.58h-5.86c-1 0-1.88-.5-1.9-1.12L52.8 47.18c0-.64.83-1.18 1.9-1.18h7.64c1 0 1.9.5 1.9 1.14v44.3c.02.64-.83 1.14-1.9 1.14z"/><path class="cls-6" d="M52.45 42.86l.06.53c.05.5.73.89 1.55.91l8.46.25c.93 0 1.72-.43 1.72-1v-.79c0-.52-.69-1-1.57-1-2.11-.06-5.9-.11-8.71 0-.89.08-1.57.56-1.51 1.1z"/><path class="cls-5" d="M94.44 92.58h-5.86c-1 0-1.89-.5-1.91-1.12L86 63.23c0-.64.83-1.18 1.9-1.18h7.64c1 0 1.9.5 1.9 1.14l-1.1 28.25c.02.64-.84 1.14-1.9 1.14z"/><path class="cls-6" d="M85.65 58.91v.53c.06.5.74.89 1.56.91l8.46.25c.93 0 1.72-.43 1.72-1v-.79c0-.52-.7-1-1.57-1-2.11-.06-5.9-.11-8.71 0-.84.08-1.54.56-1.46 1.1z"/><path class="cls-5" d="M31.36 92.58H25.5c-1 0-1.88-.5-1.9-1.12L21.81 51.7c0-.64.84-1.18 1.9-1.18h7.65c1 0 1.9.5 1.9 1.14v39.76c0 .66-.86 1.16-1.9 1.16z"/><path class="cls-6" d="M21.46 47.39l.06.52c.06.5.74.89 1.55.91l8.46.25c.93 0 1.73-.42 1.73-1v-.8c0-.52-.7-1-1.57-1-2.12-.06-5.9-.12-8.72 0-.89.11-1.59.58-1.51 1.12z"/><path class="cls-5" d="M47.46 92.58H41.6c-1 0-1.88-.5-1.9-1.12L39 63.23c0-.64.84-1.18 1.9-1.18h7.65c1.05 0 1.9.5 1.9 1.14l-1.11 28.25c.02.64-.83 1.14-1.88 1.14z"/><path class="cls-6" d="M38.65 58.91l.06.53c.06.5.74.89 1.55.91l8.46.25c.93 0 1.73-.43 1.73-1v-.79c0-.52-.7-1-1.57-1-2.12-.06-5.9-.11-8.71 0-.9.08-1.58.56-1.52 1.1z"/><path class="cls-8" d="M275.35 298.21c10.88-26.59 56.07-131.49 112.57-185.39 4-3.84 11.65-1.81 11.76 3.72.58 32.1 5.74 133-120.45 185.59a3 3 0 01-3.88-3.92z"/><path class="cls-6" d="M279.52 298.79a.92.92 0 01-.47-.21.74.74 0 010-1.05c42.75-41.75 67.56-80.19 80.83-105.07 14.38-26.94 18.69-44.21 18.73-44.38a.74.74 0 111.43.35c-1.47 6-7.29 23-18.86 44.7-13.32 25-38.22 63.56-81.1 105.45a.67.67 0 01-.56.21z"/><path class="cls-6" d="M324.38 293.39a3.1 3.1 0 01-4.37-2.7c-.44-12.09 1.38-46.39 32.93-73.93 26.64-23.26 38.86-38.38 43.93-45.63a1.94 1.94 0 013.53 1c.6 20.65-3.4 88.33-76.02 121.26z"/><path d="M322.46 291.19a.72.72 0 01-.29-.06.73.73 0 01-.39-1c.21-.49 21.54-49.66 57.08-83.66a.74.74 0 011 1.07c-35.33 33.78-56.54 82.68-56.75 83.16a.74.74 0 01-.65.49z" fill="url(#linear-gradient-3)"/><path class="cls-10" d="M169.52 240l-6.69 46h77.5l-10.11-46z"/><path class="cls-10" d="M39.37 93v136.7a20.76 20.76 0 0020.28 20.73c50.09 1.29 225.32 4.41 273 3.71a15.29 15.29 0 0015.08-14.83c.91-31.75 2.41-108.13-3.1-143.58a15.73 15.73 0 00-15.06-13.28c-42-1.34-227.73-5.59-275.41-4.53A15.09 15.09 0 0039.37 93z"/><path class="cls-11" d="M48 92.33v129.88a12 12 0 0011.87 12l266 3.27a11.71 11.71 0 0011.91-11.64l.44-128.73a8.56 8.56 0 00-8.38-8.58L57.49 83.07A9.27 9.27 0 0048 92.33z"/><path class="cls-12" d="M339.71 242.81L48 237.86a.38.38 0 01-.37-.37.37.37 0 01.37-.37l291.74 4.95a.39.39 0 01.37.37.36.36 0 01-.4.37zm-142.98 6.05a3.39 3.39 0 113.39-3.38 3.4 3.4 0 01-3.39 3.38zm0-6.05a2.65 2.65 0 102.66 2.65 2.66 2.66 0 00-2.66-2.65z"/><path class="cls-10" d="M257 298.19H143.6c-3.08 0-5.39-2.19-4.79-4.53l1.45-5.74c.45-1.72 2.35-3 4.6-3.05l109.32-3.41c2.37-.07 4.46 1.18 5 3l2.62 9.13c.66 2.41-1.66 4.6-4.8 4.6z"/><path class="cls-12" d="M204.64 286.41a.37.37 0 01-.37-.36.36.36 0 01.37-.37l4.68-.08a.38.38 0 01.37.37.35.35 0 01-.37.36l-4.68.08zM143 295a.39.39 0 01-.31-.43l.66-4.18a4.65 4.65 0 014.54-3.92l49.69-.72a.37.37 0 01.37.37.36.36 0 01-.37.37l-49.69.71a3.9 3.9 0 00-3.82 3.31l-.66 4.18a.36.36 0 01-.41.31z"/><path d="M202.63 101.4h-7v123h7zm11.68 0h-7v123h7zm11.69 0h-7v123h7zm11.69 0h-7v123h7zm11.68 0h-7v123h7zm11.7 0h-7v123h7zm11.68 0h-7v123h7z" fill="#dee5ed"/><path d="M202.63 161.36h-7v64.35h7zm11.68 22.12h-7v42.23h7zM226 128.82h-7v96.89h7zm11.69 72.26h-7v23.28h7zm11.68-60.66h-7v83.94h7zm11.7 14.58h-7v69.4h7zm11.68 15.76h-7v53.6h7z" fill="#89c540"/><path class="cls-15" d="M80.25 95.79a16.94 16.94 0 1017 16.94 17 17 0 00-17-16.94zm0 26.57a9.65 9.65 0 119.68-9.65 9.66 9.66 0 01-9.68 9.65z"/><path d="M121.68 95.79a16.94 16.94 0 1017 16.94 17 17 0 00-17-16.94zm0 26.57a9.65 9.65 0 119.68-9.65 9.65 9.65 0 01-9.68 9.65z" fill="url(#linear-gradient-4)"/><path class="cls-15" d="M121.68 95.79a16.94 16.94 0 1017 16.94 17 17 0 00-17-16.94zm0 26.57a9.65 9.65 0 119.68-9.65 9.65 9.65 0 01-9.68 9.65z"/><path d="M163.1 95.79a16.94 16.94 0 1017 16.94 17 17 0 00-17-16.94zm0 26.57a9.65 9.65 0 119.68-9.65 9.66 9.66 0 01-9.68 9.65z" style="isolation:isolate" opacity=".57" fill="#fff"/><path class="cls-15" d="M163.1 95.79a16.94 16.94 0 1017 16.94 17 17 0 00-17-16.94zm0 26.57a9.65 9.65 0 119.68-9.65 9.66 9.66 0 01-9.68 9.65z"/><path class="cls-18" d="M176.16 225l-109-.81a3.91 3.91 0 01-3.88-3.91v-55.77a3.92 3.92 0 013.92-3.9h109a3.92 3.92 0 013.92 3.9v56.64a3.91 3.91 0 01-3.96 3.85z"/><path class="cls-6" d="M159.24 185.8l-14-14.77-20.1 21.79L111 177.57l-13.29 15-10.26-12.36-20.1 20.85v15.08a3.65 3.65 0 003.65 3.64l101.38.75a3.63 3.63 0 003.62-3.63v-41z"/><path class="cls-11" d="M159.71 185.4h-.37v35.13h.37zm-14.3-14.4H145v49.29h.37zm-20.1 21.55h-.37v27.63h.37zm-13.8-14.44h-.37v42.07h.37zm-13.68 14h-.37v28.07h.37zm-9.99-12.94h-.37v40.74h.37z"/><path d="M90.94 179a3.09 3.09 0 11-3.08-3.08 3.07 3.07 0 013.08 3.08z" fill="url(#linear-gradient-5)"/><path d="M99.67 192.11a2 2 0 11-2-2c1.62-.01 2 .37 2 2z" fill="url(#linear-gradient-6)"/><path d="M113.35 178.11a2 2 0 11-2-2 2.06 2.06 0 012 2z" fill="url(#linear-gradient-7)"/><path d="M127.15 192.55a2 2 0 11-2-2 2 2 0 012 2z" fill="url(#linear-gradient-8)"/><path d="M145.23 173.06a2 2 0 10-2-2 2 2 0 002 2z" fill="url(#linear-gradient-9)"/><path d="M159.51 187.43a2 2 0 10-2-2 2 2 0 002 2z" fill="url(#linear-gradient-10)"/><path class="cls-15" d="M94.77 151.31H64.88c-1.24 0-2.27.69-2.27 1.56s1 1.57 2.27 1.57h29.89c1.24 0 2.27-.7 2.27-1.57s-1.04-1.56-2.27-1.56zm0-6.95H64.88c-1.24 0-2.27.7-2.27 1.57s1 1.57 2.27 1.57h29.89c1.24 0 2.27-.7 2.27-1.57s-1.04-1.57-2.27-1.57zm0-6.96H64.88c-1.24 0-2.27.7-2.27 1.57s1 1.57 2.27 1.57h29.89c1.24 0 2.27-.7 2.27-1.57s-1.04-1.57-2.27-1.57zm41.52 13.91h-29.88c-1.24 0-2.27.69-2.27 1.56s1 1.57 2.27 1.57h29.88c1.24 0 2.27-.7 2.27-1.57s-1.01-1.56-2.27-1.56zm0-6.95h-29.88c-1.24 0-2.27.7-2.27 1.57s1 1.57 2.27 1.57h29.88c1.24 0 2.27-.7 2.27-1.57s-1.01-1.57-2.27-1.57zm0-6.96h-29.88c-1.24 0-2.27.7-2.27 1.57s1 1.57 2.27 1.57h29.88c1.24 0 2.27-.7 2.27-1.57s-1.01-1.57-2.27-1.57zm41.54 13.91H148c-1.24 0-2.27.69-2.27 1.56s1 1.57 2.27 1.57h29.88c1.24 0 2.27-.7 2.27-1.57s-1.06-1.56-2.32-1.56zm0-6.95H148c-1.24 0-2.27.7-2.27 1.57s1 1.57 2.27 1.57h29.88c1.24 0 2.27-.7 2.27-1.57s-1.06-1.57-2.32-1.57zm0-6.96H148c-1.24 0-2.27.7-2.27 1.57s1 1.57 2.27 1.57h29.88c1.24 0 2.27-.7 2.27-1.57s-1.06-1.57-2.32-1.57z"/><path class="cls-5" d="M306.79 171.4a13.79 13.79 0 10-16.12-11 13.79 13.79 0 0016.12 11z"/><path class="cls-11" d="M312.48 154.94a8.89 8.89 0 11-8.22-5.49 3.24 3.24 0 01.44 0v-2.24h-.44a11.1 11.1 0 1010.28 6.84z"/><path class="cls-25" d="M315.63 177.47H293.1a2.55 2.55 0 100 5.1h22.53a2.55 2.55 0 100-5.1z"/><path class="cls-8" d="M317.71 116.56A13.83 13.83 0 10301.2 127a13.78 13.78 0 0016.51-10.44z"/><path class="cls-25" d="M308.9 121.51a8.87 8.87 0 11-4.74-16.36 3.39 3.39 0 01.45 0v-2.24h-.45a11.1 11.1 0 100 22.2 10.92 10.92 0 005.84-1.67zm6.79 11.68h-22.53a2.55 2.55 0 100 5.1h22.53a2.55 2.55 0 100-5.1z"/><path class="cls-5" d="M304.32 216.16a13.79 13.79 0 10-13.84-13.78 13.8 13.8 0 0013.84 13.78z"/><path class="cls-11" d="M311.84 207.34a8.88 8.88 0 11-7.35-13.84 3.39 3.39 0 01.45 0v-2.25h-.45a11.1 11.1 0 109.16 17.4z"/><path class="cls-25" d="M293 226.64h22.53a2.55 2.55 0 100-5.1H293a2.55 2.55 0 100 5.1z"/><path class="cls-10" d="M49.44 296.8c-2.48.21-6.81.56-10.21.71a9.72 9.72 0 01-3.9-.38v.21a.71.71 0 00.67.66 131.5 131.5 0 0013.37 0 .51.51 0 00.41-.76c-.11-.13-.22-.24-.34-.44z"/><path class="cls-10" d="M39.23 297.51c3.4-.15 7.73-.5 10.21-.71-2.44-3-10.21-5-10.21-5H37a9.09 9.09 0 00-1.71 5.33 9.73 9.73 0 003.94.38z"/><path d="M36.67 288.21l.22 4a.9.9 0 00.79.87 3.59 3.59 0 001.65-.13 1.13 1.13 0 00.74-.83l.72-4z" fill="url(#linear-gradient-11)"/><path class="cls-10" d="M8.19 297.47a2 2 0 01-1.77-1.31 1.39 1.39 0 001 1.58 6.19 6.19 0 002.62.41 2.58 2.58 0 002-.91 6.44 6.44 0 01-3.85.23z"/><path class="cls-10" d="M13.27 288.19h-1.8c-2.76-.06-4.48 5.73-5.05 8a2 2 0 001.77 1.31 6.61 6.61 0 003.75-.19 17.12 17.12 0 002.58-6.48 2.29 2.29 0 00-1.25-2.64z"/><path d="M11.7 284.44l-1 4a1.09 1.09 0 00.57 1.22 3.88 3.88 0 002.07.5.89.89 0 00.74-.59l1.47-4.2z" fill="url(#linear-gradient-12)"/><path class="cls-10" d="M10.5 285.58c1.24 1.1 5.31 1.26 5.31 1.26 14.63-35 20.63-40 20.63-40-2.12 13.21-.35 42.46-.35 42.46 2.41 1.07 5.53 0 5.53 0a224.45 224.45 0 017.47-55.3c-9.9-.21-15.15-3.59-16.86-4.95C24 242.27 10.5 285.58 10.5 285.58z"/><path d="M34.73 188.76c-1.86 9.3-1.2 26-.75 33.57.11 2.13-1.38 5.1-2.59 7.12a.64.64 0 00.26.89A44 44 0 0048.47 235a1.14 1.14 0 001.14-.85c5.9-21.93 12.75-35.95 12.75-35.95-7.55-12.05-27.63-9.44-27.63-9.44z" fill="#f04e3e"/><path d="M37.43 246a.39.39 0 01-.25-.08.47.47 0 01-.16-.64 14.9 14.9 0 015.8-5 .47.47 0 01.41.84 14.15 14.15 0 00-5.41 4.66.43.43 0 01-.39.22z" fill="url(#linear-gradient-13)"/><path d="M23 215.47a32.15 32.15 0 005.94 14.09l1.36-1.1a41.83 41.83 0 01-.69-13.46 15.89 15.89 0 00-6.61.47z" fill="url(#linear-gradient-14)"/><path d="M36.83 200.25l-2.1-11.49S20.76 199.4 23 215.47a16.22 16.22 0 016.62-.49c.63-5.14 2.53-10.75 7.21-14.73z" fill="url(#linear-gradient-15)"/><path d="M62.36 198.18L57 209.76c.87 7 4.64 10 8.69 11.18a24.67 24.67 0 011.81-7.54c-5.2-5.4-5.14-15.22-5.14-15.22z" fill="url(#linear-gradient-16)"/><path d="M67.48 213.38a24.41 24.41 0 00-1.8 7.54c10.83 4.2 13.7-3.95 13.7-3.95l-2-.34c-4.52.48-7.68-.97-9.9-3.25z" fill="url(#linear-gradient-17)"/><path d="M57.39 183.89l-2.6 9.53a1.86 1.86 0 01-2.48 1.24 35.59 35.59 0 01-3.74-1.7 2.52 2.52 0 01-.9-3.6l5.42-8z" fill="url(#linear-gradient-18)"/><path class="cls-10" d="M84.35 210.59L17.64 234.8a5.1 5.1 0 00-2.91 6.89l.19.44a4.76 4.76 0 006.33 2.34L86 214.62z"/><path d="M115 228.29c18.19 0 32.93-14.44 32.93-32.24s-14.74-32.23-32.93-32.23-32.92 14.43-32.92 32.23 14.74 32.24 32.92 32.24z" style="isolation:isolate" opacity=".35" fill="#91b3fa"/><path class="cls-10" d="M115 160.18c-20.24 0-36.65 16-36.65 35.87s16.41 35.87 36.65 35.87 36.65-16 36.65-35.87-16.41-35.87-36.65-35.87zm0 66.46c-17.27 0-31.26-13.69-31.26-30.59s14-30.59 31.26-30.59 31.26 13.69 31.26 30.59-13.99 30.59-31.26 30.59z"/><path class="cls-18" d="M81.14 200.42a.17.17 0 01-.17-.15c-.12-.85-.19-1.7-.23-2.57a.19.19 0 01.17-.2.18.18 0 01.2.18 23.54 23.54 0 00.23 2.53.19.19 0 01-.16.21zm.26-10a.2.2 0 01-.16-.22 33.09 33.09 0 012-6.73 34.19 34.19 0 0131.82-21 34.88 34.88 0 0118.43 5.24.19.19 0 01.06.26.19.19 0 01-.25 0 34.29 34.29 0 00-18.3-5.14 33.79 33.79 0 00-31.45 20.77 33.41 33.41 0 00-2 6.65.2.2 0 01-.15.14z"/><path d="M63.1 176.64c0 .15-2.17 10.88-2.17 10.88l-6.12-1.37.57-10.46s7.31-1.8 7.72.95z" fill="url(#linear-gradient-19)"/><path class="cls-38" d="M56.75 178l-.75 5.5v.21c.06.43.39 1.9 1.86 1.47a6.85 6.85 0 013.43-.44.74.74 0 01.53.89 33.61 33.61 0 01-1.42 5 .79.79 0 01-.93.46 24.73 24.73 0 01-5.39-2.2.74.74 0 01-.37-.7c.06-1.39.21-5.59.08-6.77s-1.5-1.78-2.08-2a.8.8 0 01-.43-.42 2 2 0 011.36-2.92.77.77 0 00.49-1 2 2 0 011.12-2.78 2.87 2.87 0 013.4.81.8.8 0 001 .12.6.6 0 01.69 0 .77.77 0 001.09-.32 2.31 2.31 0 012.7-1.34c2.73.47 3 3.5 2.33 5.26s-3.67 1.1-5.15.21c-1.12-.67-2.58 0-3.22.41a.83.83 0 00-.34.55z"/><path d="M53.57 183.4s1.13-3.15 0-3.9-2.87-.37-2.5 1.91c.45 2.83 2.5 1.99 2.5 1.99z" fill="url(#linear-gradient-20)"/><path d="M29.73 228.27l6.3-.51 2.74 2.52s-.64.89-2.66.38a30.09 30.09 0 00-4.79-.63s-2.8 1.25-2.82-1.09z" fill="url(#linear-gradient-21)"/><path d="M78.58 218.46c.55.43 2.41-.46 3.55-1.08a1.28 1.28 0 00.64-1.55c-.27-.87-.73-2-1.3-2.12-.95-.22-5.14 3.01-2.89 4.75z" fill="url(#linear-gradient-22)"/><path class="cls-8" d="M18.94 243.47a.07.07 0 01-.06 0c-2.06-.72-3.14-1.9-3.22-3.5a3.86 3.86 0 012.54-3.75l8-3.12a.19.19 0 01.24.1.19.19 0 01-.1.23l-8 3.11a3.5 3.5 0 00-2.34 3.37c.06 1.45 1.07 2.51 3 3.17a.18.18 0 01.11.23.16.16 0 01-.17.16zm9.82-10.99a.2.2 0 01-.18-.11.19.19 0 01.1-.24l1.05-.4a.19.19 0 01.23.09.19.19 0 01-.1.24l-1.05.4s-.03.02-.05.02z"/><path class="cls-10" d="M328.36 117.18a32.55 32.55 0 10-32.66-32.55 32.6 32.6 0 0032.66 32.55z"/><path class="cls-12" d="M298.26 83.39a.37.37 0 01-.35-.38 29 29 0 01.45-3.83.37.37 0 01.43-.29.37.37 0 01.29.42 28.92 28.92 0 00-.43 3.74.37.37 0 01-.39.34z"/><path class="cls-11" d="M301.42 71.48a.59.59 0 01-.17 0 .37.37 0 01-.15-.5 30.39 30.39 0 0127.26-16.72 30.85 30.85 0 015.51.5.36.36 0 11-.14.71 29.3 29.3 0 00-5.37-.48 29.65 29.65 0 00-26.6 16.32.36.36 0 01-.34.17z"/><path class="cls-12" d="M348.59 104.81a27.58 27.58 0 10-39.08 0 27.47 27.47 0 0039.08 0z"/><path d="M337.53 74.93c0 4.66-3.8 9.7-8.48 9.7s-8.47-5-8.47-9.7 3.8-8 8.47-8 8.48 3.34 8.48 8zm-18.99 27.65h20.68a5 5 0 004.78-3.46l1.11-3.47a5 5 0 00-3-6.2c-8.42-3.08-17.11-2.67-26 .29a5 5 0 00-3.21 6l.86 3.15a5 5 0 004.78 3.69z" fill="#3279be"/><path d="M328.36 140.24a55.62 55.62 0 1155.82-55.61 55.79 55.79 0 01-55.82 55.61zm0-93.8a38.17 38.17 0 1038.3 38.17 38.28 38.28 0 00-38.3-38.17z" style="isolation:isolate" opacity=".73" fill="#fff"/><path class="cls-25" d="M384 80.46l-17.46 1.29c.08 1 .12 1.9.12 2.86a37.85 37.85 0 01-2.27 13l16.47 5.92a55.55 55.55 0 003.32-18.9c-.02-1.41-.06-2.8-.18-4.17z"/><path d="M328.36 122.8a38.17 38.17 0 110-76.34 39.27 39.27 0 019.33 1.14L342 30.68a55.61 55.61 0 1038.9 72.84l-16.47-5.91a38.38 38.38 0 01-36.07 25.19z" fill="#f58518"/><path class="cls-8" d="M366.56 81.77l17.44-1.3a54.7 54.7 0 00-5.49-20.18l-15.71 7.64a37.71 37.71 0 013.76 13.84z"/><path class="cls-12" d="M187.84 51.6l66.44-.36a3.47 3.47 0 013 5.26l-.33.56a3.47 3.47 0 01-3 1.68h-66.09a3.48 3.48 0 01-3.49-3.48v-.19a3.49 3.49 0 013.47-3.47zm-9.27 3.56v.12a3.49 3.49 0 01-3.5 3.48h-14.74a3.47 3.47 0 110-6.94L175 51.7a3.46 3.46 0 013.57 3.46zm25.24 8.92l50.45-.37a3.47 3.47 0 013 5.26l-.33.56a3.47 3.47 0 01-3 1.68h-50.1a3.48 3.48 0 01-3.49-3.48v-.19a3.51 3.51 0 013.47-3.46zm-9.27 3.56v.11a3.49 3.49 0 01-3.5 3.48H176.3a3.47 3.47 0 110-6.94l14.7-.12a3.47 3.47 0 013.54 3.47z"/><path class="cls-10" d="M338.35 273.15H336v25.12h2.33z"/><path class="cls-25" d="M347.41 298.75H327v-.85a.65.65 0 01.66-.66h19.11a.65.65 0 01.66.66v.85z"/><path class="cls-10" d="M350.44 272.28a2.51 2.51 0 01-2.51 2.49h-20.66a2.5 2.5 0 01-2.5-2.49V270a2.5 2.5 0 012.5-2.5h20.66a2.51 2.51 0 012.51 2.5z"/><path d="M320 256.4a20.25 20.25 0 00-7.35 3.14 1.89 1.89 0 00-.85 1.85 81.39 81.39 0 008.71 27.23 3.05 3.05 0 01.29 2l-1.11 5.08-2 1.9h5.24l3.49-9.42-1.5-.46a2.83 2.83 0 01-2-2.63l-.19-10.09a11.41 11.41 0 00-2.78-7.61l8.39-.41z" fill="url(#linear-gradient-23)"/><path class="cls-38" d="M315.57 298.54c-.49.62 5.14 1.45 8 .07 0 0 3.93-6.82 3.93-10.34 0 0-.31-.72-2.62-.56 0 0-1.31 8.08-2.71 9s-3.9.1-3.9.1a8.26 8.26 0 00-2.7 1.73z"/><path d="M327.27 267.52c0-.08-9-1.08-9-1.08a20.77 20.77 0 01-.62 6.46c-.92 3.75-14.11 20-14.11 20l1.38 4.37a22.28 22.28 0 01-12.61.76l8.55-5.13s8-27.23 12.93-32.08l9-3.09z" fill="url(#linear-gradient-24)"/><path class="cls-38" d="M347.41 251.68s5.18 7.66 5.59 11.16-1.42 4.91-6.85 5.14-19.91.24-19.91.24l-12.36-10.54s9-3.21 11.35-4.12 22.18-1.88 22.18-1.88zm-43.02 44.09a2.51 2.51 0 01.49 3s-11.78 2.09-15 1.14c0 0 .66-1.51 4.27-3.23l-.27.21a.44.44 0 00.29.78c2.37-.12 7.29-.56 10.22-1.9z"/><path d="M333.42 250.66a122.2 122.2 0 01-9-9.5 7.93 7.93 0 01-1.36-7.23 100.34 100.34 0 014-10c.33-1.13 7.08-1.09 7.08-1.09s13.29 8.61 18.51 23.17l-5.86 1.81a67.86 67.86 0 00-6.91-9.49s5.94 7.81 6.15 11z" fill="url(#linear-gradient-25)"/><path d="M326.22 217.67c.08.23 1.83 6.05 2 6.17s3.86.33 5.63-.87l-3-6.21z" fill="url(#linear-gradient-26)"/><path d="M329.11 205.43s-3.18 1.33-5.35 5.92-.55 6.69 1.47 7a9.54 9.54 0 008.29-2.71c3.22-2.96-.25-11.8-4.41-10.21z" fill="url(#linear-gradient-27)"/><path d="M331.36 213.18s2.41-6.71-3.57-6.78l-1.39 1s-2.2-3.71 1.39-5.49a7.65 7.65 0 0110.48 4.62c1.53 4.82.64 7.93-1.9 10.25s-3.59-.31-3.59-.31 1.38-2.16.82-3.3-1.87.23-1.87.23z" fill="url(#linear-gradient-28)"/><path d="M332 213.94s1.23-3.46 2.84-2.07-1.32 3.19-2.47 3.77z" fill="url(#linear-gradient-29)"/><path d="M321.14 251.09l4.42-4.26 6.13 2.57s6.1.95 9.59 0l3.49-.94 7.88-2.44 1.24 3.48a2.1 2.1 0 01-.78 2.42 14.11 14.11 0 01-2 1.23c-1 .45-25.6-.31-25.6-.31z" fill="url(#linear-gradient-30)"/><path d="M337.83 207.27a1.34 1.34 0 01.81-2.26c3.49-.55 8.83 0 11.06 7.46 2.52 8.41 4.17 12.61 5.84 13.34a1.37 1.37 0 01.08 2.51 5.75 5.75 0 01-3.65.14c-12.88-2.82-9.64-16.61-14.14-21.19z" fill="url(#linear-gradient-31)"/><path class="cls-18" d="M337.88 253.1h-25.73a1.15 1.15 0 01-1.14-1.15 1.13 1.13 0 011.14-1.14h25.68A1.15 1.15 0 01339 252a1.14 1.14 0 01-1.12 1.1z"/><path class="cls-18" d="M289.08 229.85h21.39a4.1 4.1 0 013.68 2.32l9.85 20.89h-26.53a2.51 2.51 0 01-2.31-1.57l-7.67-19.32a1.71 1.71 0 011.59-2.32z"/><path class="cls-5" d="M304.14 240.57c.47 1.43.12 2.82-.75 3.11s-2-.66-2.45-2.09-.12-2.82.76-3.11 1.98.65 2.44 2.09z"/><path class="cls-10" d="M271.62 303.49a.85.85 0 01-.37-.08 1 1 0 01-.48-1.26l19.71-46.73a.94.94 0 011.24-.51 1 1 0 01.49 1.26l-19.71 46.74a1 1 0 01-.88.58z"/><path class="cls-10" d="M293.82 303.49a.94.94 0 01-.87-.58l-19.72-46.74a1 1 0 01.49-1.26.94.94 0 011.24.51l19.71 46.73a1 1 0 01-.48 1.26.8.8 0 01-.37.08zm55.43 0a.78.78 0 01-.36-.08 1 1 0 01-.49-1.26l19.71-46.73a1 1 0 011.25-.51 1 1 0 01.48 1.26l-19.71 46.74a1 1 0 01-.88.58z"/><path class="cls-10" d="M371.47 303.49a.94.94 0 01-.87-.58l-19.72-46.74a1 1 0 01.49-1.26.94.94 0 011.24.51l19.71 46.73a1 1 0 01-.48 1.26.88.88 0 01-.37.08z"/><path d="M373.78 254a.94.94 0 00-.21-.81 1.11 1.11 0 00-.82-.37H265.63a1.26 1.26 0 00-1 .53 1.05 1.05 0 00-.08 1.08l1.16 2.34a1.65 1.65 0 001.48.89H372a1.2 1.2 0 001.21-.93z"/><path class="cls-18" d="M116.57 154.81l.61-1a.6.6 0 011 .64l-.56.9a.61.61 0 01-.83.19.58.58 0 01-.22-.73zm2.16-3.1l.73-.87a.61.61 0 01.94.78l-.7.84a.6.6 0 01-.85.07.58.58 0 01-.12-.82zm2.58-2.71l.83-.76a.62.62 0 01.86 0 .61.61 0 010 .85l-.8.72a.6.6 0 11-.81-.89zm2.91-2.41l.93-.64a.6.6 0 11.68 1l-.89.61a.61.61 0 11-.68-1zm3.16-2.01l1-.53a.62.62 0 01.82.26.6.6 0 01-.26.81l-1 .52a.6.6 0 01-.56-1.06zm3.36-1.65l1-.42a.59.59 0 11.44 1.1l-1 .41a.6.6 0 01-.79-.33.58.58 0 01.35-.76zm3.51-1.29l1.07-.33a.57.57 0 01.73.4.58.58 0 01-.4.74l-1 .31a.61.61 0 01-.76-.41.59.59 0 01.36-.71zm3.63-.95l1.11-.21a.59.59 0 01.23 1.16l-1.07.21a.59.59 0 01-.7-.46.58.58 0 01.43-.7zm3.69-.62l1.1-.11a.59.59 0 01.66.52.57.57 0 01-.52.65l-1.09.12a.59.59 0 01-.66-.52.63.63 0 01.51-.66zm3.72-.31h1.13a.61.61 0 01.62.58.6.6 0 01-.58.62h-1.08a.6.6 0 01-.62-.58.62.62 0 01.53-.62zm3.71-.04h1.12a.58.58 0 110 1.16h-1.08a.58.58 0 110-1.16zm3.72.2l1.11.09a.58.58 0 11-.12 1.16l-1.09-.09a.6.6 0 01-.54-.64.61.61 0 01.64-.52zm3.71.4l1.1.16a.58.58 0 01.51.65.59.59 0 01-.66.51l-1.09-.16a.58.58 0 01-.5-.66.56.56 0 01.64-.5zm3.67.58l1.08.2a.58.58 0 01.47.67.6.6 0 01-.68.47l-1.09-.2a.57.57 0 01-.46-.67.58.58 0 01.68-.47zm3.62.7l1.09.23a.6.6 0 01.45.7.59.59 0 01-.7.44l-1.09-.23a.59.59 0 01-.45-.7.6.6 0 01.7-.44zm3.63.83l1.09.25a.59.59 0 01.43.7.58.58 0 01-.7.42l-1.07-.25a.58.58 0 01-.43-.69.54.54 0 01.68-.43zm3.59.89l1.07.27a.56.56 0 01.41.7.55.55 0 01-.7.4l-1.07-.27a.55.55 0 01-.41-.69.56.56 0 01.7-.41zm3.57.93l1.07.29a.58.58 0 11-.31 1.12l-1.07-.29a.6.6 0 01-.41-.72.58.58 0 01.72-.4zm3.55.98l1.07.31a.58.58 0 01-.33 1.11l-1.07-.31a.57.57 0 01-.39-.72.61.61 0 01.72-.39zm3.55 1.03l1.07.31a.56.56 0 01.39.71.57.57 0 01-.72.39l-1.07-.31a.56.56 0 01-.38-.71.59.59 0 01.71-.39zm3.53 1.06l1.07.33a.59.59 0 01.39.72.56.56 0 01-.72.36l-1-.33a.57.57 0 01-.38-.71.54.54 0 01.64-.37zm3.54 1.11l1 .32a.58.58 0 01.37.72.58.58 0 01-.72.37l-1-.33a.58.58 0 01-.37-.72.55.55 0 01.72-.36zm3.51 1.1l1.05.33a.57.57 0 01-.35 1.08l-1-.33a.57.57 0 11.35-1.08zm3.51 1.14l1.05.35a.57.57 0 01.37.71.58.58 0 01-.72.37l-1.05-.35a.57.57 0 11.35-1.08zm3.49 1.14l1.05.35a.55.55 0 01.35.71.57.57 0 01-.72.35l-1.05-.35a.56.56 0 01-.36-.71.6.6 0 01.73-.35zm3.51 1.19l1.05.35a.55.55 0 01.35.71.57.57 0 01-.72.35l-1-.35a.54.54 0 01-.35-.71.55.55 0 01.67-.35zm3.5 1.15l1 .35a.53.53 0 01.35.69.54.54 0 01-.69.35l-1.05-.35a.54.54 0 01-.35-.69.55.55 0 01.74-.35zm3.49 1.16l1.05.35a.55.55 0 01.35.69.55.55 0 01-.7.35l-1-.35a.54.54 0 01-.35-.69.55.55 0 01.65-.35zm3.49 1.18l1 .35a.54.54 0 01.35.69.55.55 0 01-.7.35l-1-.35a.55.55 0 01-.35-.69.55.55 0 01.7-.35zm3.51 1.16l1.05.35a.54.54 0 01.35.69.55.55 0 01-.7.35l-1-.35a.55.55 0 01-.39-.69.55.55 0 01.69-.35zm3.5 1.14l1 .35a.54.54 0 01.35.69.54.54 0 01-.7.35l-1-.35a.54.54 0 01-.35-.69.55.55 0 01.7-.35zm3.51 1.14l1 .33a.55.55 0 11-.34 1l-1.05-.33a.54.54 0 01-.35-.69.55.55 0 01.74-.31zm3.51 1.07l1 .33a.57.57 0 01.37.68.55.55 0 01-.68.36l-1-.32a.56.56 0 01-.37-.68.54.54 0 01.68-.37zm3.51 1.12l1.05.32a.57.57 0 01.37.68.55.55 0 01-.68.37l-1.07-.33a.57.57 0 01-.37-.68.57.57 0 01.7-.36zm3.53 1.06l1.07.31a.54.54 0 11-.31 1l-1.07-.31a.54.54 0 01-.37-.67.55.55 0 01.68-.33zm3.53 1.04l1.07.31a.54.54 0 01.37.66.56.56 0 01-.68.37l-1.07-.31a.56.56 0 01-.37-.68.57.57 0 01.68-.35zm3.54 1.03l1.06.29a.53.53 0 11-.29 1l-1.07-.29a.53.53 0 01.3-1zm3.55.98l1.06.29a.54.54 0 11-.29 1l-1.07-.29a.54.54 0 01.3-1zm3.55.97l1.06.29a.56.56 0 01.39.66.57.57 0 01-.66.39l-1.06-.3a.54.54 0 11.27-1zm3.58.93l1.06.27a.52.52 0 01.39.64.54.54 0 01-.64.39l-1.06-.28a.53.53 0 11.25-1zm3.56.93l1.06.27a.52.52 0 01.39.64.52.52 0 01-.64.38l-1.07-.27a.52.52 0 01-.38-.64.51.51 0 01.64-.38zm3.57.94l1.07.27a.53.53 0 01-.26 1l-1.06-.27a.53.53 0 11.25-1zm3.59.8l1.06.25a.53.53 0 11-.25 1l-1.08-.25a.5.5 0 01-.39-.64.57.57 0 01.66-.36zm3.57.85l1.08.25a.5.5 0 01.39.62.49.49 0 01-.62.38l-1.09-.25a.48.48 0 01-.38-.61.49.49 0 01.62-.39zm3.61.81l1.08.23a.5.5 0 01.39.62.51.51 0 01-.62.39l-1.09-.23a.51.51 0 01-.39-.62.53.53 0 01.63-.39zm3.59.79l1.08.24a.52.52 0 01.41.61.53.53 0 01-.62.41l-1.09-.23a.54.54 0 01-.41-.62.52.52 0 01.63-.41zm3.6.75l1.09.23a.53.53 0 01.41.62.53.53 0 01-.62.4l-1.09-.23a.54.54 0 01-.41-.62.51.51 0 01.62-.4zm3.61.74l1.09.22a.51.51 0 01.41.59.52.52 0 01-.6.41l-1.09-.21a.52.52 0 01-.41-.6.5.5 0 01.6-.41zm3.61.72l1.09.21a.51.51 0 11-.2 1l-1.08-.22a.52.52 0 01-.41-.6.51.51 0 01.6-.39zm3.63.69l1.09.2a.51.51 0 01-.2 1l-1.08-.19a.51.51 0 11.19-1zm3.61.64l1.09.2a.48.48 0 01.4.58.51.51 0 01-.58.42l-1.08-.19a.51.51 0 01-.43-.58.56.56 0 01.6-.43zm3.63.6l1.08.16a.51.51 0 11-.15 1l-1.11-.15a.5.5 0 01-.42-.58.55.55 0 01.6-.43zm3.65.5l1.08.14a.53.53 0 01.45.56.54.54 0 01-.56.45l-1.11-.14a.52.52 0 01-.45-.56.56.56 0 01.59-.45zm3.64.41l1.11.1a.5.5 0 11-.08 1l-1.1-.09a.51.51 0 01-.47-.55.5.5 0 01.54-.46zm3.67.29l1.11.06a.5.5 0 110 1l-1.11-.05a.53.53 0 01-.48-.53.47.47 0 01.48-.48zm3.65.12h1.1a.5.5 0 110 1h-1.1a.52.52 0 01-.51-.5.5.5 0 01.51-.5zm3.66-.06l1.09-.06a.5.5 0 01.53.46.52.52 0 01-.47.53h-1.11a.49.49 0 110-1zm3.65-.27l1.09-.12a.47.47 0 01.54.43.47.47 0 01-.42.54l-1.11.13a.47.47 0 01-.54-.44.49.49 0 01.44-.54zm3.63-.49l1.09-.19a.5.5 0 11.17 1l-1.1.19a.52.52 0 01-.59-.41.51.51 0 01.43-.59zm3.57-.71l1.07-.25a.49.49 0 11.23 1l-1.08.27a.51.51 0 01-.61-.36.55.55 0 01.39-.66zm3.53-.95l1.05-.33a.5.5 0 01.29.95l-1.06.33a.51.51 0 01-.63-.33.55.55 0 01.35-.62zm3.48-1.14l1-.39a.48.48 0 01.62.29.47.47 0 01-.29.62l-1 .39a.48.48 0 01-.63-.29.52.52 0 01.3-.62zm3.41-1.35l1-.45a.48.48 0 01.64.25.47.47 0 01-.25.64l-1 .45a.48.48 0 01-.64-.25.47.47 0 01.25-.64zm3.28-1.55l1-.5a.49.49 0 11.45.87l-1 .5a.5.5 0 01-.66-.21.53.53 0 01.21-.66zm3.24-1.72l.95-.56a.48.48 0 01.49.83l-1 .56a.47.47 0 01-.66-.17.5.5 0 01.22-.66zm3.12-1.92l.92-.59a.47.47 0 01.66.13.48.48 0 01-.14.66l-.93.62a.48.48 0 01-.66-.14.54.54 0 01.15-.68zm3.03-2.06l.87-.66a.47.47 0 01.57.75l-.9.66a.47.47 0 01-.66-.1.45.45 0 01.12-.65zm2.89-2.25l.84-.69a.49.49 0 01.68 0 .47.47 0 01-.06.66l-.86.72a.48.48 0 11-.6-.74zm2.72-2.39l.79-.76a.47.47 0 01.66 0 .45.45 0 010 .66l-.81.75a.48.48 0 01-.68 0 .48.48 0 01.04-.65zm2.68-2.54l.75-.79a.47.47 0 01.68.64l-.77.79a.47.47 0 01-.66 0 .45.45 0 010-.64zm2.48-2.67l.72-.83a.47.47 0 01.66 0 .49.49 0 01.06.66l-.72.83a.48.48 0 01-.66.06.48.48 0 01-.06-.72zm2.35-2.8l.68-.87a.47.47 0 01.66-.08.46.46 0 01.07.66l-.68.89a.45.45 0 01-.66.08.51.51 0 01-.07-.68zm2.17-2.94l.62-.91a.46.46 0 01.76.52l-.62.91a.45.45 0 01-.64.12.46.46 0 01-.12-.64zm2.02-3.05l.56-.93a.47.47 0 01.64-.16.48.48 0 01.16.64l-.59.95a.47.47 0 01-.64.15.47.47 0 01-.13-.65zm1.82-3.16l.51-1a.46.46 0 11.81.42l-.52 1a.46.46 0 01-.62.19.48.48 0 01-.18-.61zm1.65-3.26l.45-1a.45.45 0 11.83.37l-.46 1a.45.45 0 01-.6.23.43.43 0 01-.22-.6zm1.44-3.35l.38-1a.49.49 0 01.59-.27.47.47 0 01.27.58l-.39 1a.47.47 0 01-.58.27.45.45 0 01-.27-.58zm1.24-3.44l.33-1a.46.46 0 01.56-.29.45.45 0 01.29.56l-.33 1.07a.46.46 0 01-.56.29.45.45 0 01-.29-.63zm1.01-3.5l.25-1.07a.45.45 0 01.54-.33.44.44 0 01.33.55l-.27 1.08a.44.44 0 01-.54.33.46.46 0 01-.31-.56zM127.94 157l.92-.64a.19.19 0 01.23.31l-.91.62a.17.17 0 01-.25-.06.15.15 0 01.01-.23zm3.06-2l.95-.56a.26.26 0 01.33.08.23.23 0 01-.08.32l-1 .53a.22.22 0 01-.31-.1c0-.08.04-.21.11-.27zm3.29-1.78l1-.48a.29.29 0 01.37.13.28.28 0 01-.14.37l-1 .44a.27.27 0 01-.35-.13.23.23 0 01.12-.33zm3.39-1.51l1-.39a.34.34 0 01.41.18.33.33 0 01-.18.41l-1 .36a.3.3 0 01-.39-.17.26.26 0 01.16-.39zm3.5-1.22l1.06-.31a.36.36 0 01.43.24.35.35 0 01-.23.42l-1.07.29a.33.33 0 01-.41-.23.32.32 0 01.22-.41zm3.59-.96l1.08-.24a.37.37 0 01.45.3.36.36 0 01-.29.44l-1.09.21a.36.36 0 01-.42-.29.38.38 0 01.27-.42zm3.64-.7l1.11-.15a.4.4 0 01.47.34.41.41 0 01-.35.47l-1.09.13a.4.4 0 01-.44-.34.39.39 0 01.3-.45zm3.69-.43l1.11-.07a.43.43 0 01.46.4.43.43 0 01-.41.47l-1.09.08a.47.47 0 01-.47-.41.45.45 0 01.4-.47zm3.71-.19h1.1a.47.47 0 01.47.45.46.46 0 01-.45.46h-1.12a.43.43 0 01-.45-.44.45.45 0 01.45-.47zm3.72.04l1.11.06a.48.48 0 11-.06.95l-1.1-.08a.47.47 0 01-.45-.5.51.51 0 01.5-.43zm3.71.27l1.1.12a.49.49 0 11-.09 1l-1.09-.13a.49.49 0 01-.43-.54.48.48 0 01.51-.45zm3.69.48l1.1.2a.53.53 0 01.43.6.52.52 0 01-.6.42l-1.09-.19a.52.52 0 01-.41-.6.5.5 0 01.57-.43zm3.64.72l1.09.25a.54.54 0 01-.23 1.05l-1.07-.28a.51.51 0 01-.39-.63.52.52 0 01.6-.39zm3.61.93l1.07.31a.56.56 0 01.37.69.56.56 0 01-.7.37l-1.05-.33a.56.56 0 01-.37-.69.59.59 0 01.68-.35zm3.53 1.12l1 .37a.55.55 0 01.35.73.56.56 0 01-.74.35l-1-.37a.58.58 0 01-.34-.73.56.56 0 01.73-.35zm3.5 1.3l1 .42a.59.59 0 01.33.77.58.58 0 01-.77.33l-1-.42a.58.58 0 01-.31-.77.53.53 0 01.75-.33zm3.41 1.45l1 .46a.6.6 0 01.29.79.61.61 0 01-.8.29l-1-.46a.61.61 0 01-.29-.79.58.58 0 01.8-.29zm3.38 1.62l1 .5a.62.62 0 01.25.82.63.63 0 01-.82.25l-1-.51a.61.61 0 01-.25-.81.59.59 0 01.82-.25zm3.22 1.74l1 .54a.62.62 0 01.23.83.63.63 0 01-.83.24l-1-.55a.63.63 0 01-.23-.83.6.6 0 01.83-.23zm3.2 1.88l1 .58a.6.6 0 01.19.85.6.6 0 01-.85.19l-.93-.58a.62.62 0 01-.2-.85.59.59 0 01.79-.19zm3.14 1.97l.93.62a.63.63 0 11-.7 1l-.91-.62a.6.6 0 01-.17-.85.59.59 0 01.85-.15zm3.05 2.09l.91.64a.62.62 0 01.16.86.63.63 0 01-.88.16l-.89-.64a.61.61 0 01-.14-.87.58.58 0 01.84-.15zm3.01 2.18l.89.68a.63.63 0 01-.78 1l-.87-.65a.65.65 0 01-.12-.89.61.61 0 01.88-.14zm2.93 2.24l.87.7a.65.65 0 01.1.91.66.66 0 01-.92.1l-.85-.7a.64.64 0 01.8-1zm2.87 2.33l.85.71a.65.65 0 11-.83 1l-.84-.72a.64.64 0 11.82-1zm2.81 2.43l.84.74a.66.66 0 11-.88 1l-.83-.73a.66.66 0 01.87-1zm2.77 2.42l.81.75a.66.66 0 11-.89 1l-.82-.74a.64.64 0 010-.92.68.68 0 01.9-.09zm2.7 2.51l.8.76a.65.65 0 010 .91.66.66 0 01-.92 0l-.79-.76a.64.64 0 11.89-.93zm2.68 2.56l.8.77a.67.67 0 010 .91.68.68 0 01-.92 0l-.79-.78a.65.65 0 010-.9.61.61 0 01.91 0zm2.62 2.57l.77.77a.61.61 0 010 .89.62.62 0 01-.89 0l-.77-.77a.61.61 0 010-.89.64.64 0 01.89 0zm2.62 2.61l.77.79a.64.64 0 010 .89.66.66 0 01-.89 0l-.77-.77a.64.64 0 01.89-.91zm2.58 2.63l.78.79a.62.62 0 010 .87.63.63 0 01-.88 0l-.77-.79a.62.62 0 010-.87.64.64 0 01.87 0zm2.56 2.63l.78.79a.62.62 0 010 .87.63.63 0 01-.88 0l-.77-.79a.6.6 0 010-.87.66.66 0 01.87 0zm2.56 2.65l.78.79a.59.59 0 010 .85.6.6 0 01-.86 0l-.77-.79a.58.58 0 010-.85.63.63 0 01.85 0zm2.56 2.65l.78.79a.6.6 0 01-.87.83l-.78-.79a.6.6 0 11.87-.83zm2.58 2.65l.78.79a.57.57 0 010 .83.6.6 0 01-.84 0l-.77-.79a.59.59 0 010-.83.58.58 0 01.83 0zm2.54 2.63l.78.79a.59.59 0 01-.83.83l-.78-.79a.59.59 0 010-.83.57.57 0 01.83 0zm2.62 2.61l.78.77a.57.57 0 010 .79.59.59 0 01-.8 0l-.79-.77a.57.57 0 11.81-.79zm2.6 2.59l.8.77a.55.55 0 010 .77.54.54 0 01-.76 0l-.79-.77a.54.54 0 010-.77.52.52 0 01.77 0zm2.64 2.55l.8.75a.52.52 0 11-.72.76l-.81-.76a.51.51 0 010-.75.54.54 0 01.73 0zm2.7 2.49l.82.74a.5.5 0 010 .71.48.48 0 01-.7 0l-.83-.73a.51.51 0 11.68-.76zm2.74 2.44l.83.71a.48.48 0 01-.62.74l-.85-.71a.46.46 0 01-.06-.68.5.5 0 01.7-.06zm2.81 2.36l.85.69a.46.46 0 11-.56.72l-.87-.68a.46.46 0 01-.08-.65.45.45 0 01.66-.08zm2.89 2.24l.89.66a.45.45 0 01.1.62.43.43 0 01-.6.09l-.89-.65a.43.43 0 01-.1-.62.42.42 0 01.6-.1zm3 2.13l.91.62a.42.42 0 11-.47.69l-.93-.6a.41.41 0 01-.11-.58.41.41 0 01.6-.13zm3.05 2.01l1 .56a.38.38 0 01-.39.66l-1-.56a.38.38 0 01-.14-.54.38.38 0 01.54-.12s-.01-.02-.01 0zm3.19 1.82l1 .5a.36.36 0 01.15.46.34.34 0 01-.46.16l-1-.5a.36.36 0 01-.16-.49.36.36 0 01.49-.13zm3.28 1.62l1 .45a.29.29 0 01.16.4.3.3 0 01-.41.16l-1-.43a.3.3 0 01-.17-.42.34.34 0 01.45-.16zm3.37 1.39l1 .37a.28.28 0 01.17.35.29.29 0 01-.35.17l-1-.34a.28.28 0 01-.18-.37.3.3 0 01.36-.18zm3.49 1.13l1.07.29a.24.24 0 01-.12.46l-1.08-.25a.28.28 0 01-.2-.31.29.29 0 01.33-.19zm3.62.85l1.09.19a.2.2 0 01.16.23.21.21 0 01-.24.16l-1.1-.16a.2.2 0 01-.18-.23.24.24 0 01.27-.19z"/></svg>